<svg xmlns="http://www.w3.org/2000/svg" viewBox="0 0 166.1 22.7" style="enable-background:new 0 0 166.1 22.7" xml:space="preserve"><linearGradient id="a" gradientUnits="userSpaceOnUse" x1="0" y1="11.336" x2="166.094" y2="11.336"><stop offset="0" style="stop-color:#00f"/><stop offset="1" style="stop-color:#f0f"/></linearGradient><path d="M55.5 2.5c-.5-.8-1.2-1.4-2-1.8-.8-.5-1.7-.7-2.8-.7-1 0-1.9.2-2.7.6-.8.4-1.5.9-2.2 1.6V2c0-.5-.1-.9-.2-1.4-.1-.4-.5-.6-1.1-.6-.4 0-.9.1-1.3.2s-.8.3-1.2.4L38.9 2c-.3.1-.6.3-.9.6-.3.2-.4.6-.4 1s.1.6.2.8c.2.2.3.3.5.4.2.1.4.3.5.5s.2.6.2 1.1v11.9c0 .5-.1.8-.2 1.1-.1.2-.3.4-.5.6-.2.1-.3.3-.5.5s-.2.5-.2.8c0 .5.1.8.4 1.1.3.2.7.4 1.1.4h6.7c.4 0 .8-.1 1.1-.4.3-.2.4-.6.4-1 0-.3 0-.5-.1-.7-.1-.2-.2-.4-.4-.6-.2-.3-.4-.5-.5-.6-.1-.2-.2-.3-.2-.5v-2.5c.9.2 1.9.5 3 .5 1.7 0 3.2-.4 4.4-1.2s2.1-1.9 2.8-3.3c.6-1.4 1-2.9 1-4.5 0-1-.1-1.9-.4-2.9-.4-1-.8-1.8-1.4-2.6zm-5.7 7.6-.3 1.5c-.2.5-.4.9-.7 1.3-.3.3-.7.5-1.2.5-.3 0-.6-.1-.8-.2-.2-.1-.5-.3-.7-.5V4.5c.4-.3.8-.5 1.2-.5.5 0 1 .2 1.3.5.3.3.6.7.8 1.2.2.5.3 1 .4 1.5.1.5.1 1 .1 1.4 0 .5 0 .9-.1 1.5zm-14.4 4.1c.2.2.3.5.3.9 0 .5-.1.8-.4 1.1-.3.2-.7.4-1.1.4h-3.6c-.8 0-1.5-.3-2.1-.9-.6-.6-.9-1.3-.9-2.1-.6.6-1.2 1.1-1.9 1.6s-1.4 1-2.1 1.3c-.7.3-1.4.5-2.1.5-1 0-1.8-.3-2.5-.8s-1.2-1.2-1.5-2c-.3-.8-.5-1.7-.5-2.6V6.3c0-.4 0-.7-.1-.8-.1-.2-.2-.4-.5-.6l-.6-.6c-.2-.2-.3-.5-.3-.8 0-.4.1-.7.4-1s.6-.4.9-.6L20.2.5c.4-.2.8-.3 1.2-.4.5 0 .9-.1 1.4-.1.4 0 .8.1 1 .4.2.3.3.6.3 1V10c0 .3 0 .6.1.9.1.3.2.6.4.9.2.2.5.4.9.4s.7-.1 1-.3c.3-.2.6-.4.8-.6v-5c0-.4 0-.7-.1-.9-.1-.2-.3-.4-.6-.6-.2-.2-.4-.4-.6-.5-.2-.2-.3-.4-.3-.8s.1-.7.4-1 .6-.4.9-.5L30.4.6c.4-.2.8-.3 1.2-.4.5-.1.9-.2 1.4-.2.4 0 .8.1 1 .4.2.3.4.6.4 1V12.6c0 .3.1.5.4.8.1.3.4.6.6.8zm87.2-5.9c.5-.5.8-1.2.8-2.1 0-1.3-.3-2.5-1-3.4-.7-.9-1.6-1.6-2.6-2.1-1.1-.5-2.3-.7-3.5-.7-1.8 0-3.3.4-4.6 1.1-1.3.7-2.3 1.7-2.9 3.1-.7 1.3-1 2.9-1 4.6 0 1.7.4 3.1 1.1 4.3.7 1.2 1.7 2.2 2.9 2.9s2.7 1 4.3 1c.8 0 1.7-.1 2.5-.4s1.7-.6 2.4-1.1c.7-.5 1.3-1.1 1.8-1.8.4-.7.7-1.5.7-2.5 0-.3-.1-.5-.2-.7-.1-.2-.4-.3-.7-.3-.2 0-.4.1-.7.3-.3.2-.7.4-1.1.7-.4.3-.8.5-1.3.7-.5.2-.9.3-1.4.3-1.2 0-2-.3-2.7-.9-.6-.6-1-1.4-1.3-2.3h6.3c.9 0 1.6-.2 2.2-.7zm-6.4-1.6c-.1.2-.4.3-.8.3h-1.6V5.8c0-.4.1-.7.2-1.1.1-.4.2-.7.4-1 .2-.3.4-.4.8-.4.3 0 .6.2.8.5.2.3.3.7.4 1.1s.1.7.1 1c0 .3-.1.6-.3.8zM14 8.4c.5.8.8 1.7.8 2.8 0 1.4-.3 2.6-1 3.4-.6.8-1.5 1.4-2.6 1.8-1.1.4-2.2.6-3.5.6-.3 0-.8 0-1.3-.1-.6-.1-1-.2-1.3-.3-.1-.1-.3-.1-.5-.2s-.4-.1-.5-.1c-.3 0-.6.1-.8.4-.3.2-.6.3-.9.3-.4 0-.8-.1-1.1-.4-.3-.3-.4-.6-.6-1-.1-.4-.2-.8-.4-1.1-.1-.3-.2-.6-.2-.9-.1-.4-.1-.7-.1-1 0-.5.1-1 .4-1.3.3-.3.7-.5 1.3-.5.5 0 1 .1 1.3.4.4.2.7.5 1 .8.3.3.6.7.8 1 .3.3.6.6 1 .9s.9.4 1.5.4c.4 0 .8-.1 1-.4.2-.3.3-.6.3-1 0-.6-.2-1-.5-1.1-.3-.2-.7-.3-1.2-.4-.9-.2-1.7-.4-2.6-.6-.8-.2-1.5-.6-2.1-1-.6-.4-1.1-1-1.5-1.7S.3 6.6.3 5.5c0-1.3.3-2.3 1-3.1C2.1 1.6 3 1 4 .6 5.1.2 6.2 0 7.3 0h1.3c.4 0 .8.1 1.2.2.1 0 .2.1.4.1.2.1.5.2.9.3.3 0 .6-.1.9-.4.2-.1.5-.2.8-.2.4 0 .8.2 1 .5.2.3.4.7.4 1.2.1.4.2.8.2 1.1 0 .2.1.5.1.7 0 .2.1.5.1.7 0 .4-.1.8-.3 1.2-.2.4-.5.6-1 .6s-.9-.2-1.3-.5-.8-.7-1.1-1.2-.8-.8-1.3-1.2c-.5-.3-1.1-.4-1.8-.4-.4 0-.7.1-1 .2s-.4.4-.4.9c0 .3.1.6.2.8.2.1.4.2.7.4.3.1.6.2 1 .3s.7.1 1 .2c1 .2 1.9.6 2.7 1.1.8.4 1.5 1.1 2 1.8zm130.5 5.8c.2.2.3.5.3.9 0 .5-.1.8-.4 1.1-.3.2-.6.4-1.1.4h-6.5c-.4 0-.8-.1-1-.4-.2-.3-.4-.6-.4-1s.1-.7.3-.9c.2-.2.4-.5.5-.7.2-.2.3-.6.3-1V7c0-.5-.1-1-.3-1.4-.2-.5-.6-.7-1.2-.7-.4 0-.7.1-.9.2-.3.1-.5.3-.7.5V12.9c0 .3.1.5.3.8.2.3.4.5.5.6.1.2.2.4.2.8s-.1.8-.4 1c-.2.3-.6.4-1 .4h-6.5c-.4 0-.8-.1-1.1-.4-.3-.2-.4-.6-.4-1.1 0-.3.1-.6.2-.8.1-.2.3-.4.4-.5.2-.2.3-.4.4-.6.1-.2.2-.6.2-1V6.3c0-.5-.1-.8-.2-1.1-.1-.2-.3-.4-.5-.6-.2-.1-.4-.3-.5-.5-.1-.2-.2-.4-.2-.8s.1-.7.4-1l.9-.6 3.4-1.4c.4-.2.8-.3 1.2-.4.4-.1.8-.2 1.3-.2.4 0 .8.1 1 .4.2.3.3.6.3 1v1.4c.8-.8 1.7-1.4 2.7-2 1-.6 2-.9 2.9-.9 1 0 1.8.2 2.5.8.7.5 1.2 1.2 1.5 2 .3.8.5 1.7.5 2.6v7.4c0 .3.1.5.3.8.4.6.6.8.8 1zm-38.4 0c.2.2.3.5.3.9 0 .5-.1.8-.4 1.1-.3.2-.6.4-1.1.4h-6.4c-.4 0-.8-.1-1-.4-.2-.3-.4-.6-.4-1s.1-.7.3-.9c.2-.2.4-.4.5-.7.2-.3.3-.6.3-1.1V7c0-.3 0-.6-.1-.9s-.2-.6-.4-.9c-.2-.2-.5-.4-.8-.4-.3 0-.6.1-.9.3s-.5.4-.7.6v6.5c0 .6.1 1 .3 1.2.2.3.4.5.5.7.2.2.3.5.3.9s-.1.8-.4 1c-.2.3-.6.4-1 .4h-6.4c-.4 0-.8-.1-1-.4-.2-.3-.3-.6-.3-1s.1-.7.3-.9c.2-.2.4-.4.5-.7.2-.2.3-.6.3-1.1V7c0-.3 0-.6-.1-.9s-.3-.7-.5-.9c-.2-.2-.5-.4-.8-.4-.3 0-.6.1-.9.3-.3.2-.5.4-.7.6v6.5c0 .6.1 1 .3 1.2.2.3.4.5.5.7.2.2.3.5.3.9s-.1.8-.3 1c-.2.3-.6.4-1 .4h-6.4c-.4 0-.8-.1-1.1-.4-.3-.2-.4-.6-.4-1.1 0-.5.1-.8.3-1 .2-.2.4-.5.6-.7.2-.3.3-.7.3-1.2V6.3c0-.5-.1-.8-.2-1.1-.1-.2-.3-.4-.5-.6-.2-.1-.4-.3-.5-.5-.1-.2-.2-.4-.2-.8s.1-.8.4-1c.3-.2.6-.4.9-.5L81.7.4c.4-.2.8-.3 1.2-.4.2.1.7 0 1.1 0 .4 0 .8.1 1 .4.2.3.3.6.3 1V3c.8-.7 1.7-1.4 2.7-2 1-.6 1.9-1 2.9-1 1.1 0 2 .3 2.7 1 .7.6 1.1 1.4 1.4 2.4.6-.5 1.1-1.1 1.8-1.6.6-.5 1.3-.9 2-1.3s1.4-.5 2.1-.5c1 0 1.8.3 2.4.8s1.1 1.2 1.4 2c.3.8.5 1.7.5 2.5v7.4c0 .4.1.6.3.8.3.2.5.5.6.7zm-30.6-1.8c-.2 0-.3 0-.4.1-.1.1-.2.1-.4.1s-.3-.1-.4-.2c-.1-.1-.1-.3-.1-.5V4.8c0-1.2-.3-2.1-.8-2.8S72.2.8 71.3.5c-.9-.3-1.9-.5-2.9-.5-.9 0-1.9.1-3 .2-1.1.2-2.1.4-3 .8-1 .4-1.8 1-2.4 1.8-.2.3-.4.6-.5.9-.1.3-.2.7-.2 1 0 .9.3 1.5.9 1.9.6.4 1.3.5 2.1.5.9 0 1.8-.2 2.5-.6.7-.4 1.1-1.2 1.1-2.3v-.6c0-.2 0-.5.1-.8s.3-.4.6-.4.6.2.7.5.2.6.2.9V8c-.2 0-.5-.1-.7-.1h-.7c-.8 0-1.6.1-2.4.2-.8.2-1.6.4-2.4.8-.7.4-1.3.9-1.8 1.5-.4.6-.7 1.4-.7 2.4 0 .9.2 1.6.6 2.2.4.6 1 1.1 1.7 1.4s1.5.5 2.3.5c.9 0 1.8-.2 2.7-.5s1.6-.9 2.2-1.6c.3.7.9 1.3 1.6 1.6s1.6.5 2.4.5c.7 0 1.3-.1 2-.4s1.2-.7 1.6-1.2c.4-.5.7-1.2.7-1.9 0-.3-.1-.5-.2-.7-.3-.2-.6-.3-.9-.3zm-8.2.8H67c-.5 0-.8-.2-1-.6-.2-.4-.3-.8-.3-1.2 0-.3.1-.7.2-1.1.1-.4.4-.6.8-.6.2 0 .4 0 .5.1v3.4zm98.8 1.9c0 .5-.1.8-.4 1.1-.3.2-.7.4-1.1.4H161c-.8 0-1.5-.3-2.1-.9-.6-.6-.9-1.3-.9-2.1-.6.6-1.2 1.1-1.9 1.6s-1.4 1-2.1 1.3c-.7.3-1.4.5-2.1.5-1 0-1.8-.3-2.5-.8s-1.2-1.2-1.5-2c-.3-.8-.5-1.7-.5-2.6V6.3c0-.4 0-.7-.1-.8-.1-.2-.2-.4-.5-.6l-.6-.6c-.2-.2-.3-.5-.3-.8 0-.4.1-.7.4-1s.6-.4.9-.6l3.4-1.4c.4-.2.8-.3 1.2-.4.4-.1.8-.2 1.3-.2.4 0 .8.1 1 .4.2.3.3.6.3 1V10c0 .3 0 .6.1.9.1.3.2.6.4.9.2.2.5.4.9.4s.7-.1 1-.3c.3-.2.6-.4.8-.6v-5c0-.4 0-.7-.1-.9-.1-.2-.3-.4-.6-.6-.2-.2-.4-.4-.6-.5-.2-.2-.3-.4-.3-.8s.1-.7.4-1 .6-.4.9-.6l3.4-1.4c.4-.2.8-.3 1.2-.4.4-.1.8-.2 1.3-.2.4 0 .8.1 1 .4.2.3.4.6.4 1V12.5c0 .3.1.5.4.8l.7.7c.3.3.4.7.4 1.1z" style="fill:url(#a)"/></svg>